<svg xmlns="http://www.w3.org/2000/svg" style="margin:auto;background:#f1f2f3;display:block;z-index:1;position:relative;shape-rendering:auto" width="1279" height="753" preserveAspectRatio="xMidYMid" viewBox="0 0 1279 753"><g><g opacity=".25"><path fill="#bbf5e2" stroke-width="0" d="M4.073615 0 C4.073615 1.0295949999999998 4.740468864844733 1.5480370743905607 4.225671364844733 2.4396924999999996 S2.9284629256094394 3.0130565752373464 2.0368075000000005 3.527854075237346 S1.029595 4.879385 2.987761611028804e-16 4.879385 S-1.1451520743905603 4.042651575237346 -2.036807499999999 3.5278540752373466 S-3.710873864844732 3.3313479256094407 -4.225671364844732 2.439692500000002 S-4.073615 1.0295950000000003 -4.073615 4.988739570708645e-16 S-4.7404688648447335 -1.5480370743905596 -4.225671364844734 -2.4396924999999987 S-2.9284629256094408 -3.0130565752373455 -2.036807500000002 -3.5278540752373457 S-1.0295950000000007 -4.879385 -8.963284833086412e-16 -4.879385 S1.145152074390558 -4.042651575237347 2.0368074999999974 -3.527854075237348 S3.7108738648447313 -3.3313479256094407 4.2256713648447315 -2.4396925000000023 S4.073615 -1.0295950000000007 4.073615 -9.97747914141729e-16" transform="translate(639.5,376.5) scale(1,1) translate(-639.5,-376.5) translate(993.2128912899777,102.13215743224515) scale(100)"><animateTransform attributeName="transform" dur="12.5s" repeatCount="indefinite" type="rotate" values="0;60"/></path></g><g opacity=".25"><path fill="#7ed9fe" stroke-width="0" d="M4.888338 0 C4.888338 1.2355139999999998 5.68856263781368 1.8576444892686725 5.07080563781368 2.9276309999999994 S3.514155510731327 3.615667890284815 2.4441690000000005 4.233424890284815 S1.2355140000000002 5.855262 3.5853139332345648e-16 5.855262 S-1.3741824892686723 4.851181890284815 -2.444168999999999 4.233424890284816 S-4.453048637813678 3.9976175107313283 -5.070805637813678 2.9276310000000016 S-4.888338 1.2355140000000004 -4.888338 5.986487484850374e-16 S-5.68856263781368 -1.8576444892686712 -5.070805637813681 -2.927630999999998 S-3.514155510731329 -3.6156678902848136 -2.4441690000000023 -4.233424890284814 S-1.235514000000001 -5.855262 -1.0755941799703692e-15 -5.855262 S1.3741824892686696 -4.851181890284816 2.444168999999997 -4.233424890284817 S4.453048637813678 -3.997617510731329 5.070805637813678 -2.9276310000000025 S4.888338 -1.235514000000001 4.888338 -1.1972974969700748e-15" transform="translate(639.5,376.5) scale(1,1) translate(-639.5,-376.5) translate(1063.9554695479733,47.25858891869416) scale(100)"><animateTransform attributeName="transform" dur="6.25s" repeatCount="indefinite" type="rotate" values="0;60"/></path></g><g opacity=".25"><path fill="#afa7ff" stroke-width="0" d="M6.8436732 0 C6.8436732 1.7297195999999997 7.963987692939151 2.6007022849761414 7.099127892939151 4.098683399999999 S4.919817715023858 5.061935046398741 3.4218366000000007 5.9267948463987405 S1.7297196000000001 8.1973668 5.01943950652839e-16 8.1973668 S-1.923855484976141 6.791654646398741 -3.4218365999999985 5.926794846398741 S-6.234268092939149 5.59666451502386 -7.0991278929391495 4.098683400000002 S-6.8436732 1.7297196000000006 -6.8436732 8.381082478790523e-16 S-7.963987692939152 -2.600702284976139 -7.099127892939152 -4.098683399999997 S-4.91981771502386 -5.061935046398739 -3.421836600000003 -5.92679484639874 S-1.7297196000000012 -8.1973668 -1.505831851958517e-15 -8.1973668 S1.9238554849761371 -6.791654646398743 3.4218365999999953 -5.926794846398744 S6.234268092939148 -5.5966645150238605 7.099127892939149 -4.098683400000003 S6.8436732 -1.7297196000000015 6.8436732 -1.6762164957581047e-15" transform="translate(639.5,376.5) scale(1,1) translate(-639.5,-376.5) translate(1233.7376573671627,-84.43797551382812) scale(100)"><animateTransform attributeName="transform" dur="4.166666666666667s" repeatCount="indefinite" type="rotate" values="0;60"/></path></g></g></svg>