<?xml version="1.0" encoding="utf-8"?>
<svg xmlns="http://www.w3.org/2000/svg" xmlns:xlink="http://www.w3.org/1999/xlink" style="margin: auto; background: rgb(241, 242, 243); display: block; z-index: 1; position: relative; shape-rendering: auto;" width="1440" height="788" preserveAspectRatio="xMidYMid" viewBox="0 0 1440 788">
<g transform="translate(720,394) scale(1,1) translate(-720,-394)"><g transform="translate(1232.0204480194475,-3.163770767128767) scale(100)" opacity="0.35">
  <path d="M5.864400000000002 0 C5.864400000000002 3.1104000000000007 7.568708234017386 1.6543225768626355 5.7404609852868775 4.170689036166473 S4.770365450096889 4.616209374857463 1.8121992618124423 5.5773758341613 S0.76550520299757 7.70948307632773 -2.1926609852868766 6.748316617023893 S-2.916152013081933 5.963374292847818 -4.744399261812442 3.447007833543981 S-7.095600000000001 3.1104000000000016 -7.095600000000001 8.689603828029961e-16 S-6.572646510542952 -0.9306413742401425 -4.744399261812443 -3.4470078335439798 S-5.150827173571324 -5.787150157720055 -2.1926609852868784 -6.748316617023892 S-1.1459669264720056 -6.538542293465137 1.812199261812441 -5.577375834161301 S3.9122137365563683 -6.687055495470311 5.7404609852868775 -4.170689036166475 S5.864400000000001 -3.110400000000002 5.864400000000002 -1.436363737783948e-15" fill="#3be8b0" stroke-width="0">
    <animateTransform attributeName="transform" type="rotate" dur="25s" repeatCount="indefinite" values="0;72"></animateTransform>
  </path>
</g><g transform="translate(1334.424537623337,-82.59652492055449) scale(100)" opacity="0.35">
  <path d="M7.037280000000002 0 C7.037280000000002 3.7324800000000007 9.082449880820864 1.9851870922351638 6.888553182344254 5.004826843399768 S5.724438540116266 5.539451249828955 2.174639114174931 6.69285100099356 S0.9186062435970834 9.251379691593275 -2.6311931823442523 8.097979940428672 S-3.4993824156983204 7.156049151417381 -5.693279114174931 4.136409400252777 S-8.514720000000002 3.7324800000000016 -8.514720000000002 1.0427524593635953e-15 S-7.887175812651542 -1.116769649088171 -5.693279114174931 -4.136409400252775 S-6.180992608285589 -6.944580189264068 -2.631193182344254 -8.097979940428672 S-1.3751603117664066 -7.846250752158165 2.174639114174929 -6.692851000993561 S4.694656483867642 -8.024466594564373 6.888553182344253 -5.00482684339977 S7.037280000000001 -3.7324800000000025 7.037280000000002 -1.7236364853407376e-15" fill="#01b19c" stroke-width="0">
    <animateTransform attributeName="transform" type="rotate" dur="12.5s" repeatCount="indefinite" values="0;72"></animateTransform>
  </path>
</g></g>
</svg>