<svg xmlns="http://www.w3.org/2000/svg" style="margin:auto;background:#f1f2f3;display:block;z-index:1;position:relative;shape-rendering:auto" width="1453" height="927" preserveAspectRatio="xMidYMid" viewBox="0 0 1453 927"><g><g opacity=".59"><path fill="#66b97f" stroke-width="0" d="M4.6023775 0 C4.6023775 4.119255 6.351690724666067 2.762941049085609 2.78431125 4.822568549085609 S1.2661907246660689 6.045403332805915 -2.3011887499999992 3.9857758328059156 S-5.568622499999998 4.119255000000001 -5.568622499999999 6.819595720284931e-16 S-5.8685682246660695 -1.926148332805913 -2.3011887500000023 -3.9857758328059147 S-0.7830682246660734 -6.882196049085609 2.784311249999996 -4.822568549085612 S4.602377499999999 -4.119255000000001 4.6023775 -1.1272573747685596e-15" transform="translate(726.5,463.5) scale(1,1) translate(-726.5,-463.5) translate(402.33803001330386,71.65549038637243) scale(100)"><animateTransform attributeName="transform" dur="20s" repeatCount="indefinite" type="rotate" values="0;120"/></path></g><g opacity=".59"><path fill="#a4d9b9" stroke-width="0" d="M5.522853 0 C5.522853 4.943105999999999 7.622028869599281 3.31552925890273 3.3411735 5.78708225890273 S1.5194288695992824 7.254483999367096 -2.7614264999999985 4.782930999367098 S-6.682346999999997 4.943106 -6.682346999999998 8.183514864341916e-16 S-7.042281869599282 -2.311377999367095 -2.7614265000000024 -4.782930999367097 S-0.9396818695992879 -8.25863525890273 3.3411734999999947 -5.787082258902734 S5.522852999999999 -4.943106000000001 5.522853 -1.3527088497222713e-15" transform="translate(726.5,463.5) scale(1,1) translate(-726.5,-463.5) translate(337.5056360159647,-6.713411536353078) scale(100)"><animateTransform attributeName="transform" dur="10s" repeatCount="indefinite" type="rotate" values="0;120"/></path></g><g opacity=".59"><path fill="#e7f7ef" stroke-width="0" d="M7.731994199999998 0 C7.731994199999998 6.920348399999999 10.670840417438992 4.641740962463821 4.6776428999999995 8.101915162463822 S2.127200417438996 10.156277599113935 -3.8659970999999973 6.6961033991139365 S-9.355285799999997 6.9203484 -9.355285799999997 1.1456920810078681e-15 S-9.859194617438995 -3.235929199113932 -3.8659971000000026 -6.696103399113935 S-1.3155546174390036 -11.562089362463823 4.677642899999992 -8.101915162463827 S7.731994199999996 -6.920348400000001 7.731994199999998 -1.8937923896111794e-15" transform="translate(726.5,463.5) scale(1,1) translate(-726.5,-463.5) translate(181.90789042235053,-194.79877615089424) scale(100)"><animateTransform attributeName="transform" dur="6.666666666666666s" repeatCount="indefinite" type="rotate" values="0;120"/></path></g></g></svg>