<svg xmlns="http://www.w3.org/2000/svg" style="margin:auto;background:#f1f2f3;display:block;z-index:1;position:relative;shape-rendering:auto" width="1235" height="788" preserveAspectRatio="xMidYMid" viewBox="0 0 1235 788"><g><g opacity=".4"><path fill="#3be8b0" stroke-width="0" d="M2.3959 0 C2.3959 0.5681 2.487305229767991 0.7800609681100602 2.203255229767991 1.27205 S1.6899390318899399 1.7908602649271366 1.1979500000000003 2.0749102649271367 S0.5681000000000002 2.5441000000000003 1.557811960855391e-16 2.5441000000000003 S-0.7059609681100599 2.358960264927137 -1.1979499999999996 2.0749102649271367 S-1.9192052297679902 1.7640390318899406 -2.2032552297679904 1.272050000000001 S-2.3959 0.5681000000000004 -2.3959 2.9341312660771435e-16 S-2.4873052297679905 -0.7800609681100596 -2.203255229767991 -1.2720499999999995 S-1.6899390318899408 -1.790860264927136 -1.1979500000000012 -2.0749102649271363 S-0.5681000000000005 -2.5441000000000003 -4.673435882566172e-16 -2.5441000000000003 S0.7059609681100587 -2.3589602649271373 1.1979499999999985 -2.0749102649271376 S1.9192052297679896 -1.7640390318899408 2.20325522976799 -1.2720500000000012 S2.3959 -0.5681000000000006 2.3959 -5.868262532154287e-16" transform="translate(617.5,394) scale(1,1) translate(-617.5,-394) translate(812.6682880567955,242.61195774771483) scale(100)"><animateTransform attributeName="transform" dur="10s" repeatCount="indefinite" type="rotate" values="0;60"/></path></g><g opacity=".4"><path fill="#7fe1d9" stroke-width="0" d="M2.87508 0 C2.87508 0.68172 2.9847662757215883 0.9360731617320721 2.6439062757215885 1.5264599999999997 S2.027926838267928 2.1490323179125634 1.4375400000000003 2.4898923179125636 S0.6817200000000002 3.05292 1.8693743530264686e-16 3.05292 S-0.8471531617320718 2.8307523179125638 -1.4375399999999994 2.489892317912564 S-2.3030462757215875 2.1168468382679286 -2.6439062757215877 1.526460000000001 S-2.87508 0.6817200000000003 -2.87508 3.5209575192925723e-16 S-2.9847662757215887 -0.9360731617320714 -2.643906275721589 -1.526459999999999 S-2.0279268382679287 -2.1490323179125634 -1.4375400000000014 -2.4898923179125636 S-0.6817200000000005 -3.05292 -5.608123059079406e-16 -3.05292 S0.8471531617320702 -2.8307523179125647 1.437539999999998 -2.489892317912565 S2.3030462757215875 -2.1168468382679286 2.6439062757215877 -1.5264600000000013 S2.87508 -0.6817200000000007 2.87508 -7.041915038585145e-16" transform="translate(617.5,394) scale(1,1) translate(-617.5,-394) translate(851.7019456681546,212.33434929725783) scale(100)"><animateTransform attributeName="transform" dur="5s" repeatCount="indefinite" type="rotate" values="0;60"/></path></g><g opacity=".4"><path fill="#c2d5d9" stroke-width="0" d="M4.025111999999999 0 C4.025111999999999 0.9544079999999998 4.178672786010224 1.3105024264249012 3.7014687860102238 2.1370439999999995 S2.8390975735750983 3.0086452450775885 2.012556 3.4858492450775884 S0.954408 4.274088 2.6171240942370563e-16 4.274088 S-1.1860144264249004 3.9630532450775884 -2.0125559999999987 3.485849245077589 S-3.2242647860102225 2.9635855735750996 -3.701468786010223 2.1370440000000013 S-4.025111999999999 0.9544080000000003 -4.025111999999999 4.9293405270096e-16 S-4.178672786010225 -1.3105024264249001 -3.7014687860102247 -2.1370439999999986 S-2.8390975735750996 -3.0086452450775876 -2.0125560000000013 -3.485849245077588 S-0.9544080000000006 -4.274088 -7.851372282711168e-16 -4.274088 S1.1860144264248982 -3.9630532450775897 2.012555999999997 -3.48584924507759 S3.224264786010222 -2.9635855735750996 3.7014687860102224 -2.1370440000000017 S4.025111999999999 -0.9544080000000008 4.025111999999999 -9.8586810540192e-16" transform="translate(617.5,394) scale(1,1) translate(-617.5,-394) translate(945.3827239354164,139.66808901616096) scale(100)"><animateTransform attributeName="transform" dur="3.3333333333333335s" repeatCount="indefinite" type="rotate" values="0;60"/></path></g></g></svg>