<svg xmlns="http://www.w3.org/2000/svg" style="margin:auto;background:#f1f2f3;display:block;z-index:1;position:relative;shape-rendering:auto" width="1440" height="788" preserveAspectRatio="xMidYMid" viewBox="0 0 1440 788"><g><g opacity=".4"><path fill="#4e3264" stroke-width="0" d="M4.888799999999999 0 C4.888799999999999 1.1591999999999998 1.1592 5.191199999999999 3.1786932318668695e-16 5.191199999999999 S-4.888799999999999 1.1592000000000005 -4.888799999999999 5.987053271671579e-16 S-1.1592000000000007 -5.191199999999999 -9.536079695600609e-16 -5.191199999999999 S4.888799999999999 -1.159200000000001 4.888799999999999 -1.1974106543343157e-15" transform="translate(720,394) scale(1,1) translate(-720,-394) translate(1118.2381262373478,85.09484495889996) scale(100)"><animateTransform attributeName="transform" dur="25s" repeatCount="indefinite" type="rotate" values="0;180"/></path></g><g opacity=".4"><path fill="#7b8daa" stroke-width="0" d="M5.866559999999999 0 C5.866559999999999 1.3910399999999996 1.39104 6.229439999999999 3.814431878240244e-16 6.229439999999999 S-5.866559999999999 1.3910400000000003 -5.866559999999999 7.184463926005896e-16 S-1.3910400000000007 -6.229439999999999 -1.144329563472073e-15 -6.229439999999999 S5.866559999999999 -1.391040000000001 5.866559999999999 -1.4368927852011791e-15" transform="translate(720,394) scale(1,1) translate(-720,-394) translate(1197.8857514848175,23.3138139506799) scale(100)"><animateTransform attributeName="transform" dur="12.5s" repeatCount="indefinite" type="rotate" values="0;180"/></path></g><g opacity=".4"><path fill="#dde4e6" stroke-width="0" d="M8.213183999999998 0 C8.213183999999998 1.9474559999999994 1.9474559999999999 8.721215999999998 5.34020462953634e-16 8.721215999999998 S-8.213183999999998 1.9474560000000005 -8.213183999999998 1.0058249496408253e-15 S-1.947456000000001 -8.721215999999998 -1.602061388860902e-15 -8.721215999999998 S8.213183999999998 -1.9474560000000014 8.213183999999998 -2.0116498992816505e-15" transform="translate(720,394) scale(1,1) translate(-720,-394) translate(1389.0400520787446,-124.9606604690481) scale(100)"><animateTransform attributeName="transform" dur="8.333333333333334s" repeatCount="indefinite" type="rotate" values="0;180"/></path></g></g></svg>